<?xml version="1.0" standalone="no"?>
<!DOCTYPE svg PUBLIC "-//W3C//DTD SVG 20010904//EN"
 "http://www.w3.org/TR/2001/REC-SVG-20010904/DTD/svg10.dtd">
<svg version="1.0" xmlns="http://www.w3.org/2000/svg"
 width="114.000000pt" height="108.000000pt" viewBox="0 0 114.000000 108.000000"
 preserveAspectRatio="xMidYMid meet">
<metadata>
Created by potrace 1.11, written by Peter Selinger 2001-2013
</metadata>
<g transform="translate(0.000000,108.000000) scale(0.100000,-0.100000)"
fill="#000000" stroke="none">
<path d="M0 540 l0 -540 570 0 570 0 0 540 0 540 -570 0 -570 0 0 -540z m655
495 c144 -31 272 -122 342 -246 144 -252 47 -580 -209 -710 -207 -105 -430
-69 -594 95 -104 104 -154 222 -154 364 0 231 176 448 404 497 81 18 127 18
211 0z"/>
<path d="M398 970 c-31 -11 -74 -30 -95 -42 l-38 -23 60 -5 60 -5 3 -53 c2
-36 0 -52 -7 -47 -6 3 -11 13 -11 21 0 8 -11 26 -25 39 -36 37 -102 35 -138
-3 -23 -24 -27 -36 -27 -90 l0 -62 33 0 c36 0 61 20 70 55 2 11 5 -20 5 -70 1
-89 1 -89 -14 -55 -18 41 -30 50 -66 50 -28 0 -28 0 -28 -70 0 -80 12 -113 47
-129 76 -35 183 20 183 94 0 8 5 15 11 15 8 0 10 -13 5 -37 -3 -21 -6 -50 -6
-65 l0 -28 -175 0 c-199 0 -188 7 -154 -93 70 -211 289 -357 499 -332 64 7
169 39 196 60 17 13 9 15 -76 16 -52 1 -85 4 -73 6 41 8 48 29 52 170 4 185
-2 221 -42 239 -29 13 -17 14 130 12 l161 -3 46 -32 46 -33 0 39 c0 103 -48
233 -116 316 -48 60 -141 120 -221 145 -87 27 -217 27 -295 0z m366 -311 c14
-73 -1 -110 -19 -46 -12 39 -62 67 -122 67 l-43 0 0 -183 c0 -196 6 -221 53
-230 12 -2 -27 -4 -88 -4 -60 0 -100 2 -88 4 47 9 53 34 53 230 l0 183 -39 0
c-64 0 -98 -17 -118 -61 -17 -36 -42 -57 -29 -23 3 9 6 33 6 55 l0 39 214 0
214 0 6 -31z"/>
<path d="M760 345 c0 -172 1 -186 20 -205 11 -11 27 -20 36 -20 26 0 128 111
157 170 23 47 25 60 17 91 -24 88 -101 149 -187 149 l-43 0 0 -185z"/>
</g>
</svg>
